# AST/ASF file generated using VICON BodyLanguage
# -----------------------------------------------
:version 1.10
:name VICON
:units
  mass 1.0
  length 0.45
  angle deg
:documentation
   .ast/.asf automatically generated from VICON data using
   VICON BodyBuilder and BodyLanguage model FoxedUp or BRILLIANT.MOD
:root
   order TX TY TZ RX RY RZ
   axis XYZ
   position 0 0 0  
   orientation 0 0 0 
:bonedata
  begin
     id 1 
     name lhipjoint
     direction 0.602128 -0.715006 0.355257 
     length 2.21237 
     axis 0 0 0  XYZ
  end
  begin
     id 2 
     name lfemur
     direction 0.34202 -0.939693 0  
     length 6.71649  
     axis 0 0 20  XYZ
    dof rx ry rz
    limits (-160.0 20.0)
           (-70.0 70.0)
           (-60.0 70.0)
  end
  begin
     id 3 
     name ltibia
     direction 0.34202 -0.939693 0   
     length 6.97123   
     axis 0 0 20   XYZ
    dof rx
    limits (-10.0 170.0)
  end
  begin
     id 4 
     name lfoot
     direction 0.0655697 -0.180151 0.981451   
     length 1.80924   
     axis -90 7.62852e-016 20   XYZ
    dof rx rz
    limits (-45.0 90.0)
           (-70.0 20.0)
  end
  begin
     id 5 
     name ltoes
     direction 1.53545e-011 -4.21827e-011 1   
     length 0.916331   
     axis -90 7.62852e-016 20   XYZ
    dof rx
    limits (-90.0 20.0)
  end
  begin
     id 6 
     name rhipjoint
     direction -0.625414 -0.698792 0.347201   
     length 2.2637  
     axis 0 0 0  XYZ 
  end
  begin
     id 7 
     name rfemur
     direction -0.34202 -0.939693 0   
     length 7.07595   
     axis 0 0 -20   XYZ
    dof rx ry rz
    limits (-160.0 20.0)
           (-70.0 70.0)
           (-70.0 60.0)
  end
  begin
     id 8 
     name rtibia
     direction -0.34202 -0.939693 0   
     length 7.22924   
     axis 0 0 -20   XYZ
    dof rx
    limits (-10.0 170.0)
 end
 begin
     id 9 
     name rfoot
     direction -0.0766747 -0.210662 0.974547   
     length 1.98482  
     axis -90 -7.62852e-016 -20   XYZ
    dof rx rz
    limits (-45.0 90.0)
           (-20.0 70.0)
  end
  begin
     id 10 
     name rtoes
     direction -1.53532e-011 -4.21867e-011 1   
     length 0.999842   
     axis -90 -7.62852e-016 -20   XYZ
    dof rx
    limits (-90.0 20.0)
  end
  begin
     id 11 
     name lowerback
     direction -0.0224668 0.997354 -0.0691422   
     length 2.09945   
     axis 0 0 0   XYZ
    dof rx ry rz
    limits (-20.0 45.0)
           (-30.0 30.0)
           (-30.0 30.0)
  end
  begin
     id 12 
     name upperback
     direction 0.0134698 0.998451 -0.0539888   
     length 2.09758   
     axis 0 0 0   XYZ
    dof rx ry rz
    limits (-20.0 45.0)
           (-30.0 30.0)
           (-30.0 30.0)
  end
  begin
     id 13 
     name thorax
     direction 0.0241905 0.99948 -0.0213333   
     length 2.10428   
     axis 0 0 0   XYZ
    dof rx ry rz
    limits (-20.0 45.0)
           (-30.0 30.0)
           (-30.0 30.0)
  end
  begin
     id 14 
     name lowerneck
     direction -0.00866847 0.995978 0.0891737   
     length 1.3959   
     axis 0 0 0   XYZ
    dof rx ry rz
    limits (-20.0 45.0)
           (-30.0 30.0)
           (-30.0 30.0)
  end
  begin
     id 15 
     name upperneck
     direction 0.0680679 0.992203 0.104404   
     length 1.39452   
     axis 0 0 0   XYZ
    dof rx ry rz
    limits (-20.0 45.0)
           (-30.0 30.0)
           (-30.0 30.0)
  end
  begin
     id 16
     name head
     direction 0.0242216 0.999358 0.0264054  
     length 1.40433  
     axis 0 0 0   XYZ
    dof rx ry rz
    limits (-20.0 45.0)
           (-30.0 30.0)
           (-30.0 30.0)
  end
  begin
     id 17 
     name lclavicle
     direction 0.929368 0.362991 -0.0671771  
     length 3.04887  
     axis 0 0 0   XYZ
    dof ry rz
    limits (-20.0 10.0)
           (0.0 20.0)
  end
  begin
     id 18 
     name lhumerus
     direction 1 -4.48967e-011 -7.13741e-028   
     length 4.77195   
     axis -180 -30 -90   XYZ
    dof rx ry rz
    limits (-60.0 90.0)
           (-90.0 90.0)
           (-90.0 90.0)
  end
  begin
     id 19
     name lradius
     direction 1 -4.48977e-011 3.60404e-027   
     length 2.98444   
     axis -180 -30 -90   XYZ
    dof rx
    limits (-10.0 170.0)
  end
  begin
     id 20
     name lwrist
     direction 1 -4.48997e-011 7.54877e-027   
     length 1.49222   
     axis -7.18178e-015 90 90   XYZ
    dof ry
    limits (-180.0 0.0)
 end
  begin
     id 21 
     name lhand
     direction 1 -4.489e-011 1.51105e-026   
     length 0.992285   
     axis -9.63605e-015 90 90   XYZ
    dof rx rz
    limits (-90.0 90.0)
           (-45.0 45.0)
  end
  begin
     id 22 
     name lfingers
     direction 1 -4.48998e-011 3.01948e-026   
     length 0.800006   
     axis -1.92718e-014 90 90   XYZ
    dof rx
    limits (0.0 90.0)
  end
  begin
     id 23
     name lthumb
     direction 0.707107 -6.34881e-011 0.707107   
     length 1.14865   
     axis -90 45 -3.53137e-014   XYZ
    dof rx rz
    limits (-45.0 45.0)
           (-45.0 45.0)
  end
  begin
     id 24 
     name rclavicle
     direction -0.945672 0.324529 0.0196374   
     length 3.4236  
     axis 0 0 0   XYZ 
    dof ry rz
    limits (-10.0 20.0)
           (-20.0 0.0)
  end
  begin
     id 25 
     name rhumerus
     direction -1 -4.4896e-011 1.02757e-029  
     length 4.62052   
     axis -180 30 90   XYZ
    dof rx ry rz
    limits (-90.0 60.0)
           (-90.0 90.0)
           (-90.0 90.0)
  end
  begin
     id 26 
     name rradius
     direction -1 -4.48982e-011 3.85962e-027   
     length 2.95332   
     axis -180 30 90   XYZ
    dof rx
    limits (-10.0 170.0)
  end
  begin
     id 27 
     name rwrist
     direction -1 -4.48961e-011 7.55118e-027   
     length 1.47666   
     axis -7.18178e-015 -90 -90   XYZ
    dof ry
    limits (-180.0 0.0)
  end
  begin
     id 28
     name rhand
     direction -1 -4.48984e-011 1.50994e-026   
     length 0.990956   
     axis -9.63605e-015 -90 -90   XYZ
    dof rx rz
    limits (-90.0 90.0)
           (-45.0 45.0)
  end
  begin
     id 29
     name rfingers
     direction -1 -4.4892e-011 3.02158e-026   
     length 0.798934   
     axis -1.92718e-014 -90 -90   XYZ
    dof rx
    limits (0.0 90.0)
  end
  begin
     id 30
     name rthumb
     direction -0.707107 -6.34916e-011 0.707107   
     length 1.14711   
     axis -90 -45 3.53137e-014   XYZ
    dof rx rz
    limits (-45.0 45.0)
           (-45.0 45.0)
  end
:hierarchy
  begin
    root lhipjoint rhipjoint lowerback
    lhipjoint lfemur
    lfemur ltibia
    ltibia lfoot
    lfoot ltoes
    rhipjoint rfemur
    rfemur rtibia
    rtibia rfoot
    rfoot rtoes
    lowerback upperback
    upperback thorax
    thorax lowerneck lclavicle rclavicle
    lowerneck upperneck
    upperneck head
    lclavicle lhumerus
    lhumerus lradius
    lradius lwrist
    lwrist lhand lthumb
    lhand lfingers
    rclavicle rhumerus
    rhumerus rradius
    rradius rwrist
    rwrist rhand rthumb
    rhand rfingers
  end

#!OML:ASF H:\ManfredObstacles\Project 1\Capture day 1\Session 1\Male.ASF
:FULLY-SPECIFIED
:DEGREES
305
root -1.76115 16.579 4.32636 -169.192 51.1701 -178.262
lowerback -9.37999 -2.37725 -1.56336
upperback 2.34973 -3.08882 1.43174
thorax 7.92033 -1.61724 1.8931
lowerneck 1.76527 -2.95854 -5.25978
upperneck -3.74646 -3.50873 12.7866
head -1.0543 -1.83063 4.74161
rclavicle 3.58682e-014 -1.32192e-014
rhumerus -34.9288 -23.512 -74.8884
rradius 26.3092
rwrist 33.518
rhand -0.545168 -5.66142
rfingers 7.12502
rthumb 25.0681 -34.0362
lclavicle 3.58682e-014 -1.32192e-014
lhumerus -25.5812 11.7794 84.3405
lradius 19.6047
lwrist -28.8846
lhand -6.45477 9.54024
lfingers 7.12502
lthumb 19.3951 38.593
rfemur -21.6103 -10.0953 27.869
rtibia 24.328
rfoot -12.5005 17.2327
rtoes 37.8772
lfemur -25.7732 -1.18156 -16.442
ltibia 68.1027
lfoot 6.78065 2.1242
ltoes 4.87035
306
root -1.61645 16.5659 4.23263 -168.799 51.5944 -177.729
lowerback -9.10348 -2.20426 -1.222
upperback 2.31069 -2.9029 1.48412
thorax 7.69391 -1.51017 1.79777
lowerneck 1.81545 -2.89458 -5.49595
upperneck -3.76595 -3.43497 12.7843
head -1.07075 -1.79503 4.78137
rclavicle -7.72154e-015 -3.32964e-014
rhumerus -34.0229 -22.5111 -75.7884
rradius 26.5032
rwrist 32.9626
rhand -0.924492 -5.75809
rfingers 7.12502
rthumb 24.7046 -34.1831
lclavicle -7.72154e-015 -3.32964e-014
lhumerus -25.5752 11.166 84.4198
lradius 19.9889
lwrist -27.9263
lhand -6.25088 9.53787
lfingers 7.12502
lthumb 19.5912 38.5708
rfemur -20.9822 -9.74535 28.1654
rtibia 24.603
rfoot -13.4411 17.2646
rtoes 37.4269
lfemur -27.9504 -1.8548 -16.0369
ltibia 68.3945
lfoot 5.40043 1.88778
ltoes 5.22908
307
root -1.46753 16.5478 4.13508 -168.554 52.1556 -177.349
lowerback -8.86814 -1.99718 -0.999358
upperback 2.30533 -2.65278 1.49394
thorax 7.53051 -1.37714 1.73045
lowerneck 1.91058 -2.81308 -5.79198
upperneck -3.86827 -3.33034 12.8398
head -1.11968 -1.74707 4.85067
rclavicle 5.04478e-014 -1.06598e-014
rhumerus -33.1339 -21.4602 -76.6981
rradius 26.7007
rwrist 32.4679
rhand -1.01905 -5.7864
rfingers 7.12502
rthumb 24.614 -34.2238
lclavicle 5.04478e-014 -1.06598e-014
lhumerus -25.5937 10.6139 84.4701
lradius 20.3744
lwrist -27.2322
lhand -6.28031 9.47461
lfingers 7.12502
lthumb 19.5629 38.5104
rfemur -20.3749 -9.20014 28.3044
rtibia 24.9719
rfoot -14.4493 17.2401
rtoes 37.026
lfemur -29.8417 -2.39274 -15.7626
ltibia 68.1246
lfoot 4.01371 1.61154
ltoes 3.47207
308
root -1.31441 16.5265 4.03023 -168.512 52.8738 -177.272
lowerback -8.76153 -1.76716 -0.938591
upperback 2.33181 -2.34713 1.41028
thorax 7.47779 -1.22306 1.65809
lowerneck 1.87641 -2.7552 -5.93551
upperneck -3.922 -3.25716 12.7856
head -1.13507 -1.70951 4.85796
rclavicle 2.02512e-015 1.50331e-014
rhumerus -32.2757 -20.3306 -77.6566
rradius 26.993
rwrist 31.8472
rhand -0.821575 -5.80774
rfingers 7.12502
rthumb 24.8032 -34.2192
lclavicle 2.02512e-015 1.50331e-014
lhumerus -25.6626 10.4396 84.3729
lradius 20.7993
lwrist -27.0868
lhand -6.34847 9.41099
lfingers 7.12502
lthumb 19.4973 38.4534
rfemur -19.8494 -8.70188 28.2058
rtibia 25.4534
rfoot -15.4641 17.3651
rtoes 36.2164
lfemur -31.5491 -2.82931 -15.7004
ltibia 67.3148
lfoot 2.64917 1.52847
ltoes 2.70088
309
root -1.16027 16.5028 3.92156 -168.583 53.5898 -177.327
lowerback -8.65794 -1.52366 -0.91574
upperback 2.33991 -2.01523 1.26431
thorax 7.40657 -1.05634 1.5445
lowerneck 1.86001 -2.72913 -5.95679
upperneck -3.99864 -3.22031 12.7036
head -1.15939 -1.69156 4.83693
rclavicle 5.91253e-015 -3.42838e-014
rhumerus -31.6025 -19.2844 -78.5814
rradius 27.3235
rwrist 31.0117
rhand -0.733693 -5.9296
rfingers 7.12502
rthumb 24.8874 -34.3295
lclavicle 5.91253e-015 -3.42838e-014
lhumerus -25.8228 10.3131 84.1965
lradius 21.2626
lwrist -27.1015
lhand -6.35846 9.32789
lfingers 7.12502
lthumb 19.4877 38.3713
rfemur -19.3284 -8.30389 27.9872
rtibia 26.0504
rfoot -16.5586 17.6673
rtoes 35.6922
lfemur -33.075 -3.27429 -15.6572
ltibia 65.967
lfoot 1.20766 1.86709
ltoes 2.25234
310
root -1.00635 16.473 3.81125 -168.828 54.2589 -177.56
lowerback -8.49893 -1.31866 -0.971438
upperback 2.33757 -1.72402 1.0826
thorax 7.29699 -0.912068 1.43157
lowerneck 1.80156 -2.69176 -6.00654
upperneck -4.00586 -3.17381 12.6392
head -1.15655 -1.66584 4.82442
rclavicle 8.28621e-014 -9.01985e-015
rhumerus -31.0704 -18.3443 -79.4541
rradius 27.692
rwrist 30.3314
rhand -0.694353 -5.93855
rfingers 7.12502
rthumb 24.9251 -34.3332
lclavicle 8.28621e-014 -9.01985e-015
lhumerus -26.0219 9.99806 84.0338
lradius 21.6649
lwrist -26.836
lhand -6.42386 9.27414
lfingers 7.12502
lthumb 19.4249 38.3239
rfemur -18.7406 -7.87108 27.6213
rtibia 26.6297
rfoot -17.2626 18.0207
rtoes 35.4101
lfemur -34.3628 -3.65252 -15.7298
ltibia 64.1144
lfoot -0.170387 2.27867
ltoes 0.0547818
311
root -0.850717 16.4442 3.69717 -169.296 54.8976 -178.006
lowerback -8.33568 -1.19134 -1.17482
upperback 2.38975 -1.52219 0.924555
thorax 7.25249 -0.819034 1.41203
lowerneck 1.5812 -2.62455 -6.21232
upperneck -3.91607 -3.0986 12.5711
head -1.09859 -1.61761 4.83299
rclavicle 2.76621e-014 -1.38155e-014
rhumerus -30.4768 -17.4307 -80.2163
rradius 28.017
rwrist 30.1245
rhand -0.498141 -5.64365
rfingers 7.12502
rthumb 25.1132 -34.0121
lclavicle 2.76621e-014 -1.38155e-014
lhumerus -26.1597 9.95669 83.8758
lradius 21.9075
lwrist -26.5793
lhand -6.45827 9.2728
lfingers 7.12502
lthumb 19.3918 38.3259
rfemur -18.0261 -7.4488 27.12
rtibia 27.0653
rfoot -17.9226 18.2875
rtoes 35.4358
lfemur -35.4008 -4.12074 -15.848
ltibia 61.7884
lfoot -1.46142 2.61911
ltoes 0.205008
312
root -0.690969 16.423 3.58564 -169.432 55.3592 -178.112
lowerback -8.23588 -1.06253 -1.2107
upperback 2.43759 -1.33842 0.797711
thorax 7.23685 -0.72787 1.32686
lowerneck 1.40071 -2.6023 -6.27989
upperneck -3.90229 -3.07177 12.4796
head -1.06762 -1.59702 4.81308
rclavicle -2.22266e-014 -2.83268e-015
rhumerus -29.8822 -16.8916 -80.8851
rradius 28.171
rwrist 30.3081
rhand -0.305726 -5.12128
rfingers 7.12502
rthumb 25.2975 -33.4638
lclavicle -2.22266e-014 -2.83268e-015
lhumerus -26.2486 9.90295 83.665
lradius 22.0235
lwrist -26.3906
lhand -6.59854 9.33048
lfingers 7.12502
lthumb 19.2569 38.3971
rfemur -17.3003 -7.04056 26.894
rtibia 27.3301
rfoot -18.6538 18.391
rtoes 35.5632
lfemur -36.3878 -4.66745 -15.5614
ltibia 59.0699
lfoot -2.46473 2.7807
ltoes 1.01248
313
root -0.525584 16.4097 3.46889 -169.098 55.8272 -177.781
lowerback -8.30555 -0.902444 -0.948279
upperback 2.44193 -1.14634 0.700607
thorax 7.2669 -0.619829 1.10397
lowerneck 1.37054 -2.54191 -6.48213
upperneck -3.9441 -2.98948 12.5571
head -1.07788 -1.55459 4.87066
rclavicle 4.76338e-014 -3.08116e-015
rhumerus -29.3244 -16.475 -81.5624
rradius 28.2552
rwrist 30.4407
rhand -0.288465 -4.81893
rfingers 7.12502
rthumb 25.314 -33.1591
lclavicle 4.76338e-014 -3.08116e-015
lhumerus -26.3599 9.87406 83.393
lradius 21.9822
lwrist -26.3317
lhand -6.89639 9.37579
lfingers 7.12502
lthumb 18.9705 38.4707
rfemur -16.5777 -6.6635 26.9295
rtibia 27.4356
rfoot -19.3811 18.6499
rtoes 36.2368
lfemur -37.2497 -4.9245 -15.0116
ltibia 55.9197
lfoot -2.88661 2.71173
ltoes 1.22873
314
root -0.358557 16.3915 3.35309 -168.737 56.1902 -177.38
lowerback -8.29042 -0.812974 -0.703322
upperback 2.41313 -1.05217 0.675007
thorax 7.21931 -0.561808 0.953264
lowerneck 1.41695 -2.43733 -7.07194
upperneck -3.98743 -2.85014 12.9382
head -1.09564 -1.48509 5.08814
rclavicle -5.76476e-014 2.08724e-015
rhumerus -28.9032 -15.7735 -82.2033
rradius 28.3865
rwrist 30.2519
rhand -0.392154 -4.79381
rfingers 7.12502
rthumb 25.2147 -33.148
lclavicle -5.76476e-014 2.08724e-015
lhumerus -26.5611 10.3181 83.0412
lradius 21.8433
lwrist -26.5902
lhand -6.87592 9.27157
lfingers 7.12502
lthumb 18.9902 38.3645
rfemur -15.7426 -6.36412 27.0241
rtibia 27.3877
rfoot -20.3225 18.8119
rtoes 36.7648
lfemur -37.8488 -5.03898 -14.4886
ltibia 52.3244
lfoot -2.78318 2.37038
ltoes 0.224405
315
root -0.19111 16.3701 3.24044 -168.854 56.5632 -177.492
lowerback -8.15091 -0.715482 -0.838422
upperback 2.37788 -0.900869 0.567971
thorax 7.09817 -0.490769 0.940257
lowerneck 1.5333 -2.36083 -6.88512
upperneck -4.14039 -2.74301 12.6974
head -1.17767 -1.43822 4.98567
rclavicle -4.72611e-014 -1.09332e-015
rhumerus -28.605 -14.8886 -82.8981
rradius 28.5395
rwrist 29.766
rhand -0.508699 -4.96358
rfingers 7.12502
rthumb 25.103 -33.3334
lclavicle -4.72611e-014 -1.09332e-015
lhumerus -26.7634 10.9132 82.603
lradius 21.6507
lwrist -26.9905
lhand -6.57422 9.10928
lfingers 7.12502
lthumb 19.2803 38.1735
rfemur -14.7975 -6.11725 26.8194
rtibia 27.2046
rfoot -21.0745 18.8983
rtoes 37.2599
lfemur -38.1035 -5.27037 -14.31
ltibia 48.3077
lfoot -2.66774 2.06831
ltoes -2.92494
316
root -0.021252 16.3548 3.12174 -168.877 56.9485 -177.594
lowerback -8.1356 -0.633055 -1.02444
upperback 2.34308 -0.767235 0.512304
thorax 7.05099 -0.43189 1.00573
lowerneck 1.67131 -2.17501 -5.38356
upperneck -4.23822 -2.53328 10.7015
head -1.44536 -1.32323 4.56904
rclavicle 1.28713e-014 6.36111e-015
rhumerus -28.2363 -13.8979 -83.5708
rradius 28.7144
rwrist 29.2628
rhand -0.428166 -5.50568
rfingers 7.12502
rthumb 25.1802 -33.8647
lclavicle 1.28713e-014 6.36111e-015
lhumerus -26.9064 11.6768 82.1956
lradius 21.3173
lwrist -27.6239
lhand -6.47103 9.02246
lfingers 7.12502
lthumb 19.3795 38.0768
rfemur -13.8953 -5.96545 26.6089
rtibia 26.9057
rfoot -21.1908 18.9958
rtoes 37.2983
lfemur -38.2094 -5.47941 -14.0813
ltibia 43.964
lfoot -2.67101 1.78393
ltoes -3.99521
317
root 0.154515 16.3443 2.99597 -168.345 57.2088 -177.056
lowerback -8.24343 -0.573793 -0.802837
upperback 2.33849 -0.714288 0.556359
thorax 7.10425 -0.397472 0.933972
lowerneck 1.50755 -2.11194 -5.59265
upperneck -4.19341 -2.46067 10.6333
head -1.406 -1.27953 4.58142
rclavicle 2.51463e-014 1.11319e-014
rhumerus -27.9004 -13.2793 -84.0735
rradius 28.8542
rwrist 29.0793
rhand -0.250144 -5.77291
rfingers 7.12502
rthumb 25.3508 -34.1079
lclavicle 2.51463e-014 1.11319e-014
lhumerus -27.0099 12.6829 81.7483
lradius 20.8359
lwrist -28.6225
lhand -6.53264 8.95202
lfingers 7.12502
lthumb 19.3203 38.0123
rfemur -12.9194 -5.78626 26.7747
rtibia 26.471
rfoot -21.3874 18.7928
rtoes 36.1
lfemur -38.1503 -5.45975 -13.4885
ltibia 39.3801
lfoot -2.51763 1.26745
ltoes -4.08147
318
root 0.339553 16.337 2.86472 -167.958 57.4573 -176.664
lowerback -8.47814 -0.471329 -0.587241
upperback 2.35978 -0.595274 0.482027
thorax 7.25585 -0.328509 0.750082
lowerneck 1.48833 -2.08191 -5.58503
upperneck -4.3032 -2.41109 10.6073
head -1.44335 -1.25497 4.57189
rclavicle 9.89699e-014 -1.0138e-014
rhumerus -27.7503 -12.9348 -84.5526
rradius 28.9927
rwrist 28.7717
rhand -0.153405 -5.58543
rfingers 7.12502
rthumb 25.4434 -33.9072
lclavicle 9.89699e-014 -1.0138e-014
lhumerus -27.1364 13.2439 81.3007
lradius 20.409
lwrist -29.2737
lhand -6.5325 8.97662
lfingers 7.12502
lthumb 19.3204 38.0369
rfemur -11.7657 -5.57807 26.8445
rtibia 25.8563
rfoot -21.6724 18.6289
rtoes 35.0984
lfemur -37.8631 -5.3316 -13.0552
ltibia 34.6591
lfoot -2.0063 0.430292
ltoes -5.51622
319
root 0.52801 16.3327 2.73031 -168.199 57.8492 -176.925
lowerback -8.65598 -0.346883 -0.742846
upperback 2.39467 -0.396354 0.278065
thorax 7.39144 -0.233838 0.651573
lowerneck 1.53508 -2.09144 -5.48793
upperneck -4.4254 -2.41487 10.5428
head -1.49303 -1.25982 4.53231
rclavicle 1.28713e-014 -4.96962e-015
rhumerus -27.6325 -12.5922 -85.0202
rradius 29.05
rwrist 28.373
rhand -0.098911 -5.48215
rfingers 7.12502
rthumb 25.4956 -33.7965
lclavicle 1.28713e-014 -4.96962e-015
lhumerus -27.3285 13.4341 80.909
lradius 20.1175
lwrist -29.5566
lhand -6.49283 9.07843
lfingers 7.12502
lthumb 19.3585 38.1348
rfemur -10.4282 -5.46754 26.5041
rtibia 25.0534
rfoot -21.5956 18.875
rtoes 34.8967
lfemur -37.3315 -5.05356 -13.1205
ltibia 29.9453
lfoot -1.24812 -0.599934
ltoes -5.27364
